<?xml version="1.0" standalone="no"?>
<!DOCTYPE svg PUBLIC "-//W3C//DTD SVG 1.1//EN" "http://www.w3.org/Graphics/SVG/1.1/DTD/svg11.dtd" >
<svg xmlns="http://www.w3.org/2000/svg" xmlns:xlink="http://www.w3.org/1999/xlink" version="1.1">
<metadata></metadata>
<defs>
<font id="movistar_textregular" horiz-adv-x="1130" >
<font-face units-per-em="2048" ascent="1536" descent="-512" />
<missing-glyph horiz-adv-x="417" />
<glyph unicode="&#xfb01;" horiz-adv-x="1110" d="M29 879v96l182 26v103q0 192 90 289q98 106 309 106q101 0 226 -22v-129q-122 12 -199 12q-142 0 -199 -60q-57 -57 -57 -196v-100h582v-1004h-170v879h-412v-879h-170v879h-182z" />
<glyph unicode="&#xfb02;" horiz-adv-x="1114" d="M29 879v96l182 26v117q0 183 84 273q102 108 344 108q152 0 330 -31v-1468h-170v1352q-97 10 -160 10q-151 0 -207 -62q-51 -54 -51 -192v-104h264v-125h-264v-879h-170v879h-182z" />
<glyph horiz-adv-x="0" />
<glyph horiz-adv-x="682" />
<glyph unicode=" "  horiz-adv-x="417" />
<glyph unicode="&#x09;" horiz-adv-x="417" />
<glyph unicode="&#xa0;" horiz-adv-x="417" />
<glyph unicode="!" horiz-adv-x="559" d="M172 72v16q0 53 25.5 76.5t76.5 23.5h11q51 0 76.5 -23.5t25.5 -76.5v-16q0 -101 -102 -101h-11q-102 0 -102 101zM186 1401h183l-29 -1026h-125z" />
<glyph unicode="&#x22;" horiz-adv-x="790" d="M150 1401h174l-21 -430h-133zM465 1401h176l-20 -430h-136z" />
<glyph unicode="#" d="M102 420v135h164l56 287h-220v137h248l82 422h154l-84 -422h235l84 422h152l-84 -422h139v-137h-166l-53 -287h221v-135h-248l-80 -420h-151l78 420h-236l-80 -420h-153l82 420h-140zM420 555h235l56 287h-236z" />
<glyph unicode="$" d="M141 1053q0 164 103.5 259.5t285.5 110.5v254h121v-252q170 -6 299 -51l-26 -139q-138 35 -273 41v-492q49 -19 80.5 -33t76 -37t73 -44t60.5 -53t50.5 -66t30.5 -79t12 -97q0 -181 -110 -285q-103 -95 -273 -113v-256h-121v250q-226 7 -374 68l30 139q185 -55 344 -55 v524q-41 16 -64 25.5t-61 26.5t-61 30.5t-54 34.5t-50 40.5t-40 47.5t-32.5 57t-19 66t-7.5 78zM313 1065q0 -82 55 -133.5t162 -97.5v436q-217 -25 -217 -205zM651 131q81 15 133 55q76 60 76 170q0 88 -54.5 143t-154.5 99v-467z" />
<glyph unicode="%" horiz-adv-x="1890" d="M111 1014q0 86 19.5 159t58.5 131t105.5 90.5t154.5 32.5q71 0 128 -21.5t95.5 -59.5t64.5 -90.5t37.5 -112.5t11.5 -129q0 -86 -19 -159t-58 -131t-105.5 -91t-154.5 -33t-154.5 33t-105.5 91t-58.5 131t-19.5 159zM268 1014q0 -134 41 -203.5t140 -69.5t139.5 69 t40.5 204t-40.5 203.5t-139.5 68.5t-140 -69t-41 -203zM510 -29l719 1456h151l-716 -1456h-154zM1104 385q0 86 19.5 159t58.5 131t105.5 91t154.5 33t154.5 -33t105.5 -91t58.5 -131t19.5 -159t-19.5 -159t-58.5 -131t-105.5 -91t-154.5 -33t-154.5 33t-105.5 91t-58.5 131 t-19.5 159zM1262 385q0 -135 40.5 -203.5t139.5 -68.5t139.5 68.5t40.5 203.5t-40.5 203.5t-139.5 68.5t-139.5 -68.5t-40.5 -203.5z" />
<glyph unicode="&#x26;" horiz-adv-x="1378" d="M104 367q0 135 77.5 235.5t224.5 179.5q-94 106 -131 181.5t-37 160.5q0 139 91.5 221t233.5 82q137 0 226.5 -77.5t89.5 -208.5q0 -106 -64 -201.5t-194 -169.5l378 -416q40 65 66.5 156.5t32.5 185.5h137q-4 -122 -43 -238t-100 -204l206 -225l-112 -97l-195 209 q-179 -170 -438 -170q-201 0 -325 108t-124 288zM279 381q0 -128 79 -198t220 -70q186 0 323 127l-418 454q-204 -114 -204 -313zM387 1135q0 -67 34.5 -127t123.5 -156q103 73 147.5 139.5t44.5 143.5q0 75 -46 121.5t-126 46.5q-82 0 -130 -44.5t-48 -123.5z" />
<glyph unicode="'" horiz-adv-x="473" d="M150 1401h174l-21 -430h-133z" />
<glyph unicode="(" horiz-adv-x="681" d="M152 528q0 305 113 560.5t313 433.5l92 -70q-326 -395 -326 -924q0 -528 326 -923l-92 -70q-200 178 -313 433t-113 560z" />
<glyph unicode=")" horiz-adv-x="681" d="M12 -395q326 395 326 923q0 529 -326 924l92 70q200 -178 313 -433.5t113 -560.5t-113 -560t-313 -433z" />
<glyph unicode="*" horiz-adv-x="897" d="M70 1061l49 139l278 -129l-24 330h147l-20 -330l278 129l49 -139l-297 -88l203 -240l-115 -90l-169 264l-170 -264l-115 90l203 240z" />
<glyph unicode="+" horiz-adv-x="1105" d="M213 610v129h274v275h129v-275h277v-129h-277v-276h-129v276h-274z" />
<glyph unicode="," horiz-adv-x="464" d="M115 84v6q0 111 104 111h2q61 0 89 -33t28 -109q0 -61 -14.5 -166.5t-32.5 -181.5h-80v256q-96 20 -96 117z" />
<glyph unicode="-" horiz-adv-x="659" d="M123 459v145h414v-145h-414z" />
<glyph unicode="." horiz-adv-x="464" d="M123 82v8q0 111 102 111h15q102 0 102 -111v-8q0 -111 -102 -111h-15q-102 0 -102 111z" />
<glyph unicode="/" horiz-adv-x="925" d="M78 -29l604 1456h166l-604 -1456h-166z" />
<glyph unicode="0" d="M84 698q0 175 26.5 307t83 228t149.5 145t222 49q171 0 279.5 -88.5t155.5 -247t47 -393.5q0 -175 -26.5 -307t-83.5 -227.5t-150 -144t-222 -48.5q-103 0 -183.5 32t-136.5 92t-92 150t-52.5 201.5t-16.5 251.5zM262 698q0 -302 68.5 -441.5t234.5 -139.5t234.5 139.5 t68.5 441.5q0 303 -68.5 443.5t-234.5 140.5t-234.5 -140.5t-68.5 -443.5z" />
<glyph unicode="1" d="M262 0v131h242v1147h-238v115q154 22 289 22q66 0 91.5 -20.5t25.5 -75.5v-1188h213v-131h-623z" />
<glyph unicode="2" d="M139 47q0 43 16.5 78.5t65.5 95.5l322 393q124 152 172.5 247t48.5 190q0 126 -76 180.5t-225 54.5q-143 0 -295 -31v134q149 38 319 38q236 0 349 -102q106 -92 106 -266q0 -125 -56 -233t-216 -296l-336 -395h633v-135h-820q-8 24 -8 47z" />
<glyph unicode="3" d="M154 6v135q127 -26 278 -26q184 0 268 63q91 67 91 209q0 121 -70 188q-82 76 -285 76h-37v127h35q322 0 322 262q0 122 -70 183q-74 63 -254 63q-121 0 -256 -22v133q135 30 289 30q247 0 360 -110q103 -98 103 -268q0 -120 -57 -200.5t-154 -117.5q119 -41 185.5 -129 t66.5 -217q0 -196 -131 -305q-133 -109 -383 -109q-157 0 -301 35z" />
<glyph unicode="4" d="M84 395q0 55 37 160l295 846h166l-326 -922h465v355h168v-355h170v-137h-170v-342h-168v342h-633q-4 28 -4 53z" />
<glyph unicode="5" d="M178 4v133q136 -22 260 -22q196 0 281 71q84 72 84 220q0 140 -70 210q-41 41 -112.5 58.5t-188.5 17.5h-229q-6 15 -6 43q0 31 2 76l26 590h670v-135h-526l-19 -437h107q158 0 256 -28.5t161 -93.5q107 -110 107 -297q0 -197 -113 -310q-126 -129 -397 -129 q-157 0 -293 33z" />
<glyph unicode="6" d="M127 627q0 455 164 649q127 151 379 151q112 0 229 -24v-131q-122 16 -215 16q-102 0 -173.5 -31.5t-115.5 -97.5t-65.5 -156.5t-26.5 -218.5q182 76 338 76q185 0 289 -108t104 -312q0 -209 -116 -339t-328 -130q-126 0 -216.5 45.5t-144 133t-78 205t-24.5 272.5z M301 588q0 -234 67 -355.5t226 -121.5q130 0 199 85t69 234q0 147 -60 220t-196 73q-144 0 -305 -53v-82z" />
<glyph unicode="7" d="M147 1266v135h842q6 -15 6 -45q0 -58 -22 -123l-420 -1233h-186l456 1266h-676z" />
<glyph unicode="8" d="M104 344q0 125 76.5 226.5t202.5 164.5q-105 61 -164 140t-59 196q0 158 113.5 257t293.5 99q179 0 290.5 -97.5t111.5 -237.5q0 -115 -66.5 -206t-187.5 -149q70 -35 118.5 -67t96 -77.5t72 -103.5t24.5 -127q0 -178 -128 -284.5t-339 -106.5t-333 102.5t-122 270.5z M272 356q0 -117 77 -180t212 -63q136 0 215.5 61t79.5 172q0 47 -18.5 87.5t-44 68.5t-72 58.5t-82 48.5t-95.5 46q-21 10 -32 15q-110 -55 -175 -134t-65 -180zM319 1081q0 -49 20.5 -90.5t62.5 -76t82.5 -59t105.5 -56.5q221 113 221 280q0 90 -67.5 149.5t-174.5 59.5 q-113 0 -181.5 -56.5t-68.5 -150.5z" />
<glyph unicode="9" d="M96 958q0 209 116.5 339t328.5 130q101 0 179.5 -30t131.5 -85t87.5 -136.5t49.5 -181t15 -222.5q0 -455 -164 -649q-128 -152 -379 -152q-109 0 -230 25v131q122 -16 215 -16q200 0 285 122t96 381q-179 -75 -338 -75q-185 0 -289 107.5t-104 311.5zM268 969 q0 -147 60 -220t196 -73q144 0 305 53v82q0 234 -66.5 355.5t-225.5 121.5q-130 0 -199.5 -85t-69.5 -234z" />
<glyph unicode=":" horiz-adv-x="464" d="M123 82v8q0 111 102 111h15q102 0 102 -111v-8q0 -111 -102 -111h-15q-102 0 -102 111zM123 719v8q0 111 102 111h15q102 0 102 -111v-8q0 -111 -102 -111h-15q-102 0 -102 111z" />
<glyph unicode=";" horiz-adv-x="464" d="M121 84v6q0 111 104 111h2q61 0 89 -33t28 -109q0 -61 -14.5 -166.5t-32.5 -181.5h-80v256q-96 20 -96 117zM123 719v8q0 111 102 111h15q102 0 102 -111v-8q0 -111 -102 -111h-15q-102 0 -102 111z" />
<glyph unicode="&#x3c;" horiz-adv-x="1105" d="M213 606v139l680 340v-147l-535 -262l535 -256v-152z" />
<glyph unicode="=" horiz-adv-x="1105" d="M213 426v129h680v-129h-680zM213 795v129h680v-129h-680z" />
<glyph unicode="&#x3e;" horiz-adv-x="1105" d="M213 268v152l535 256l-535 262v147l680 -340v-139z" />
<glyph unicode="?" horiz-adv-x="847" d="M74 1382q145 45 297 45q213 0 319 -98q88 -85 88 -223q0 -105 -42 -189.5t-136 -191.5q-51 -58 -71.5 -83.5t-47.5 -63t-36.5 -63.5t-17 -60.5t-9.5 -79.5h-125q-6 34 -6 63q0 82 28 147.5t107 157.5l24 29q81 95 116.5 162.5t35.5 148.5q0 98 -57 146q-60 51 -195 51 q-122 0 -246 -31zM256 72v16q0 53 25.5 76.5t76.5 23.5h11q51 0 76.5 -23.5t25.5 -76.5v-16q0 -101 -102 -101h-11q-102 0 -102 101z" />
<glyph unicode="@" horiz-adv-x="1562" d="M82 694q0 217 85.5 383t247 258t378.5 92q313 0 498.5 -184t185.5 -483q0 -204 -90 -319t-250 -115q-133 0 -197 57q-94 -59 -211 -59q-107 0 -170 60t-63 159t59 155q74 68 244 68h116v47q0 81 -30 111q-35 32 -131 32q-88 0 -193 -20l-6 108q107 29 215 29 q155 0 221 -69q58 -61 58 -187v-373q36 -8 79 -8q106 0 160 78q53 82 53 227q0 265 -144 413.5t-404 148.5q-271 0 -419.5 -163t-148.5 -442q0 -294 159.5 -451t471.5 -157q188 0 373 39v-113q-163 -45 -389 -45q-370 0 -564 192.5t-194 530.5zM629 551q0 -117 137 -117 q73 0 149 37v193h-116q-102 0 -140 -35q-30 -27 -30 -78z" />
<glyph unicode="A" horiz-adv-x="1210" d="M37 0l444 1401h209l484 -1401h-191l-123 373h-530l-115 -373h-178zM375 516h438l-225 692h-2z" />
<glyph unicode="B" horiz-adv-x="1212" d="M170 0v1401h375q270 0 375 -105q88 -88 88 -243q0 -110 -48.5 -189t-138.5 -119q132 -31 204.5 -121.5t72.5 -228.5q0 -186 -107 -284q-123 -111 -397 -111h-424zM352 143h187q124 0 192 15t109 51q69 63 69 188q0 122 -61 183q-41 39 -106 55t-179 16h-211v-508z M352 795h180q174 0 238 67q55 58 55 168q0 114 -57 168q-62 59 -238 59h-178v-462z" />
<glyph unicode="C" horiz-adv-x="1136" d="M115 692q0 395 182 580q73 76 182.5 115.5t241.5 39.5q181 0 326 -53l-25 -139q-144 39 -281 39q-212 0 -313 -113q-123 -134 -123 -465q0 -326 129 -458q112 -115 352 -115q103 0 248 29l17 -140q-134 -41 -310 -41q-316 0 -471 179.5t-155 541.5z" />
<glyph unicode="D" horiz-adv-x="1323" d="M170 0v1401h354q195 0 323.5 -41t211.5 -131q149 -165 149 -520q0 -386 -168 -557q-149 -152 -477 -152h-393zM352 145h205q117 0 195 25t133 78q135 129 135 459q0 290 -102 415q-58 70 -152.5 101.5t-251.5 31.5h-162v-1110z" />
<glyph unicode="E" horiz-adv-x="1087" d="M170 0v1401h803l-17 -144h-604v-475h490v-147h-490v-492h633v-143h-815z" />
<glyph unicode="F" horiz-adv-x="987" d="M170 0v1401h788l-16 -144h-590v-475h475v-147h-475v-635h-182z" />
<glyph unicode="G" horiz-adv-x="1310" d="M115 678q0 398 194 592q160 157 453 157q184 0 338 -53l-25 -139q-148 41 -297 41q-235 0 -348 -131q-125 -142 -125 -457q0 -290 109 -428q109 -139 364 -139q98 0 191 14v430h-238v144h416v-684q-72 -23 -180 -38.5t-203 -15.5q-334 0 -490 179q-159 182 -159 528z" />
<glyph unicode="H" horiz-adv-x="1347" d="M170 0v1401h182v-619h643v619h183v-1401h-183v635h-643v-635h-182z" />
<glyph unicode="I" horiz-adv-x="534" d="M176 0v1401h182v-1401h-182z" />
<glyph unicode="J" horiz-adv-x="761" d="M74 131q72 -10 149 -10q66 0 106.5 16t63.5 53q31 53 31 175v1036h182v-1034q0 -217 -82 -308q-80 -88 -278 -88q-83 0 -156 17z" />
<glyph unicode="K" horiz-adv-x="1214" d="M170 0v1401h182v-723l584 723h205l-475 -580l497 -821h-207l-405 686l-199 -240v-446h-182z" />
<glyph unicode="L" horiz-adv-x="1032" d="M170 0v1401h182v-1258h611v-143h-793z" />
<glyph unicode="M" horiz-adv-x="1636" d="M170 0v1401h160l487 -922l494 922h155v-1401h-172v1042l-407 -745h-152l-403 754v-1051h-162z" />
<glyph unicode="N" horiz-adv-x="1396" d="M170 0v1401h127l768 -1090v1090h162v-1401h-140l-755 1067v-1067h-162z" />
<glyph unicode="O" horiz-adv-x="1347" d="M115 698q0 127 17.5 233.5t58.5 200t104.5 157.5t159.5 101t219 37t219 -37t159.5 -101t104.5 -157.5t58.5 -200t17.5 -233.5t-17.5 -233.5t-58.5 -199.5t-104.5 -157t-159.5 -100.5t-219 -36.5t-219 36.5t-159.5 100.5t-104.5 157t-58.5 199.5t-17.5 233.5zM305 698 q0 -136 17.5 -235.5t58.5 -177t114 -117t179 -39.5t179 39.5t113.5 117t58 177t17.5 235.5t-17.5 235.5t-58 178t-113.5 118.5t-179 40q-85 0 -149 -27t-105.5 -75t-67.5 -121t-36.5 -157t-10.5 -192z" />
<glyph unicode="P" horiz-adv-x="1159" d="M170 0v1401h401q296 0 412 -119q102 -102 102 -305q0 -226 -114 -340q-118 -115 -359 -115h-260v-522h-182zM352 670h199q196 0 270 69q76 73 76 234q0 143 -66 209q-75 75 -274 75h-205v-587z" />
<glyph unicode="Q" horiz-adv-x="1347" d="M115 698q0 127 17.5 233.5t58.5 200t104.5 157.5t159.5 101t219 37t219 -37t159.5 -101t104.5 -157.5t58.5 -200t17.5 -233.5q0 -495 -264 -655q91 -6 188.5 -36.5t159.5 -69.5q-7 -27 -33 -78t-43 -76l-305 137q-69 31 -112.5 41t-118.5 10h-31q-123 0 -219 36.5 t-159.5 100.5t-104.5 157t-58.5 199.5t-17.5 233.5zM305 698q0 -136 17.5 -235.5t58.5 -177t114 -117t179 -39.5t179 39.5t113.5 117t58 177t17.5 235.5t-17.5 235.5t-58 178t-113.5 118.5t-179 40q-85 0 -149 -27t-105.5 -75t-67.5 -121t-36.5 -157t-10.5 -192z" />
<glyph unicode="R" horiz-adv-x="1232" d="M170 0v1401h408q296 0 409 -113q105 -102 105 -311q0 -159 -68 -261.5t-195 -146.5l301 -569h-202q-229 453 -273 539q-50 -4 -90 -4h-213v-535h-182zM352 682h217q198 0 273 84q61 70 61 211q0 144 -63 207q-73 73 -283 73h-205v-575z" />
<glyph unicode="S" horiz-adv-x="1112" d="M109 1053q0 182 124.5 278t339.5 96q191 0 345 -53l-27 -139q-155 41 -303 41q-307 0 -307 -211q0 -57 31 -102t81.5 -73t115.5 -57t132 -53t132 -60.5t115.5 -79.5t81.5 -111t31 -154q0 -181 -110 -285q-125 -119 -371 -119q-100 0 -210 18.5t-187 49.5l31 139 q188 -55 350 -55q167 0 248 63q75 60 75 170q0 56 -24.5 100.5t-66 74.5t-95.5 55t-113.5 47.5t-119 46.5t-113.5 57t-95.5 74.5t-66 103t-24.5 138.5z" />
<glyph unicode="T" horiz-adv-x="1165" d="M45 1257v144h1083l-16 -144h-438v-1257h-182v1257h-447z" />
<glyph unicode="U" horiz-adv-x="1329" d="M154 504v897h182v-887q0 -116 20.5 -186.5t67.5 -116.5q87 -84 252 -84q158 0 242 84q92 92 92 303v887h166v-897q0 -278 -138 -410q-129 -123 -366 -123q-246 0 -375 117q-143 128 -143 416z" />
<glyph unicode="V" horiz-adv-x="1204" d="M41 1401h188l387 -1202h5l362 1202h180l-448 -1401h-203z" />
<glyph unicode="W" horiz-adv-x="1812" d="M41 1401h186l318 -1186h4l272 1186h191l299 -1178h4l287 1178h170l-359 -1401h-215l-280 1116h-5l-260 -1116h-221z" />
<glyph unicode="X" horiz-adv-x="1103" d="M45 0l418 698l-400 703h193l311 -565l301 565h191l-410 -694l406 -707h-199l-313 565l-299 -565h-199z" />
<glyph unicode="Y" horiz-adv-x="1177" d="M33 1401h200l357 -674l371 674h184l-475 -832v-569h-183v573z" />
<glyph unicode="Z" horiz-adv-x="1148" d="M102 0v104l723 1153h-710v144h929v-109l-720 -1149h723v-143h-945z" />
<glyph unicode="[" horiz-adv-x="700" d="M233 -424v1913h408v-133h-229v-1647h229v-133h-408z" />
<glyph unicode="\" horiz-adv-x="925" d="M78 1427h166l604 -1456h-166z" />
<glyph unicode="]" horiz-adv-x="700" d="M59 -291h230v1647h-230v133h408v-1913h-408v133z" />
<glyph unicode="^" horiz-adv-x="1105" d="M150 815l333 586h138l333 -586h-157l-246 457l-246 -457h-155z" />
<glyph unicode="_" horiz-adv-x="880" d="M45 -57h791v-125h-791v125z" />
<glyph unicode="`" horiz-adv-x="839" d="M190 1446l97 129l360 -320l-65 -90z" />
<glyph unicode="a" horiz-adv-x="1034" d="M90 285q0 137 86 217q104 96 340 96h209v64q0 118 -51 169q-63 60 -209 60q-117 0 -270 -25l-7 131q143 35 306 35q215 0 313 -92q47 -46 67.5 -109.5t20.5 -162.5v-668h-137l-10 68q-150 -97 -316 -97q-168 0 -262 97q-80 83 -80 217zM262 289q0 -89 53.5 -134.5 t153.5 -45.5q126 0 256 65v299h-184q-159 0 -224 -51q-55 -46 -55 -133z" />
<glyph unicode="b" horiz-adv-x="1081" d="M143 0v1464h170v-512q146 80 289 80q187 0 288 -130.5t101 -395.5q0 -270 -100 -402.5t-291 -132.5q-80 0 -164.5 27t-146.5 70l-8 -68h-138zM313 184q52 -31 120 -51t128 -20q131 0 191.5 90t60.5 303q0 202 -61 291.5t-195 89.5q-124 0 -244 -58v-645z" />
<glyph unicode="c" horiz-adv-x="921" d="M90 489q0 266 131 406q128 137 369 137q118 0 239 -31l-10 -131q-131 25 -209 25q-175 0 -258.5 -100.5t-83.5 -302.5q0 -191 84 -287q81 -94 266 -94q107 0 209 20l13 -127q-121 -33 -252 -33q-243 0 -365 125q-133 136 -133 393z" />
<glyph unicode="d" horiz-adv-x="1085" d="M90 496q0 250 110 393t306 143q140 0 266 -71v503h170v-1464h-139l-12 61q-62 -40 -144.5 -65t-152.5 -25q-194 0 -299 133.5t-105 391.5zM268 494q0 -196 68 -289.5t205 -93.5q110 0 231 59v670q-125 49 -231 49q-146 0 -209.5 -103t-63.5 -292z" />
<glyph unicode="e" horiz-adv-x="1036" d="M90 500q0 261 117.5 396.5t316.5 135.5q207 0 311.5 -137.5t104.5 -390.5v-39q0 -23 -25 -23h-647q0 -174 88 -256q81 -75 256 -75q121 0 248 26l17 -127q-134 -39 -297 -39q-238 0 -359 121q-131 131 -131 408zM268 567h504q-5 152 -66 240t-182 88q-125 0 -189.5 -86 t-66.5 -242z" />
<glyph unicode="f" horiz-adv-x="653" d="M29 879v96l182 26v138q0 180 74 266q82 94 262 94q90 0 168 -16v-129q-82 8 -144 8q-107 0 -149 -45q-23 -24 -32 -64t-9 -110v-139h264v-125h-264v-879h-170v879h-182z" />
<glyph unicode="g" horiz-adv-x="1046" d="M82 -207q0 66 31 126t84 97q-47 38 -47 109q0 116 118 231q-141 99 -141 303q0 170 102 271.5t301 101.5q41 0 103 -8l121 262q83 -18 141 -65l-139 -238q89 -45 133.5 -129.5t44.5 -194.5q0 -169 -102.5 -270.5t-301.5 -101.5q-90 0 -157 20q-24 -27 -40 -62t-16 -61 q0 -61 82 -61h193q131 0 210.5 -22t129.5 -72q74 -74 74 -203q0 -157 -113.5 -236t-362.5 -79q-227 0 -337.5 72.5t-110.5 209.5zM242 -176q0 -85 71.5 -127.5t233.5 -42.5q299 0 299 166q0 73 -49 110q-55 41 -205 41h-217q-44 0 -74 6q-59 -72 -59 -153zM289 659 q0 -237 241 -237q242 0 242 237q0 238 -242 238q-241 0 -241 -238z" />
<glyph unicode="h" horiz-adv-x="1114" d="M143 0v1464h170v-524q167 92 326 92q167 0 252 -88q84 -84 84 -262v-682h-170v662q0 120 -49 169q-52 52 -162 52q-142 0 -281 -66v-817h-170z" />
<glyph unicode="i" horiz-adv-x="464" d="M127 1303v4q0 108 100 108h11q100 0 100 -108v-4q0 -109 -100 -109h-11q-100 0 -100 109zM147 0v1004h170v-1004h-170z" />
<glyph unicode="j" horiz-adv-x="464" d="M-143 -346q172 3 233 72q32 36 44.5 92t12.5 149v1037h170v-1010q0 -146 -23.5 -230t-80.5 -143q-101 -104 -338 -104zM127 1303v4q0 108 100 108h11q100 0 100 -108v-4q0 -109 -100 -109h-11q-100 0 -100 109z" />
<glyph unicode="k" horiz-adv-x="1024" d="M143 0v1464h170v-970l449 510h196l-354 -390l391 -614h-194l-307 498l-181 -201v-297h-170z" />
<glyph unicode="l" horiz-adv-x="460" d="M145 0v1464h170v-1464h-170z" />
<glyph unicode="m" horiz-adv-x="1724" d="M143 0v1004h142l8 -74q161 102 323 102q189 0 273 -112q184 112 360 112q167 0 252 -88q84 -84 84 -262v-682h-170v662q0 120 -49 169q-52 52 -158 52q-131 0 -270 -68q14 -65 14 -133v-682h-170v662q0 120 -49 169q-52 52 -158 52q-123 0 -262 -66v-817h-170z" />
<glyph unicode="n" horiz-adv-x="1114" d="M143 0v1004h142l8 -74q168 102 346 102q167 0 252 -88q84 -84 84 -262v-682h-170v662q0 120 -49 169q-52 52 -162 52q-142 0 -281 -66v-817h-170z" />
<glyph unicode="o" horiz-adv-x="1093" d="M90 502q0 256 114 393t343 137t343 -137t114 -393t-114 -393.5t-343 -137.5t-343 137.5t-114 393.5zM268 502q0 -198 64.5 -294.5t214.5 -96.5q149 0 213.5 96.5t64.5 294.5t-64.5 294.5t-213.5 96.5q-150 0 -214.5 -96.5t-64.5 -294.5z" />
<glyph unicode="p" horiz-adv-x="1081" d="M143 -461v1465h142l8 -74q152 102 313 102q190 0 287.5 -140t97.5 -386q0 -274 -102 -404.5t-289 -130.5q-78 0 -154.5 20.5t-132.5 55.5v-508h-170zM313 174q45 -27 112.5 -44t131.5 -17q137 0 196.5 90.5t59.5 304.5q0 193 -59.5 286t-184.5 93q-127 0 -256 -68v-645z " />
<glyph unicode="q" horiz-adv-x="1087" d="M90 496q0 251 113 393.5t309 142.5q149 0 281 -96l10 68h141v-1453l-170 -30v526q-59 -34 -136 -55t-144 -21q-191 0 -297.5 135.5t-106.5 389.5zM268 500q0 -389 273 -389q115 0 233 59v649q-120 70 -242 70q-129 0 -196.5 -98t-67.5 -291z" />
<glyph unicode="r" horiz-adv-x="686" d="M143 0v1004h142l10 -86q137 114 285 114q30 0 65 -6v-152q-57 5 -88 5q-135 0 -244 -68v-811h-170z" />
<glyph unicode="s" horiz-adv-x="909" d="M94 743q0 142 99.5 215.5t265.5 73.5q155 0 293 -43l-15 -125q-148 33 -264 33q-219 0 -219 -141q0 -45 31 -78t80 -53t109 -38t119.5 -41.5t108.5 -54.5t80 -85t31 -127q0 -155 -108 -231.5t-297 -76.5q-164 0 -295 43l8 131q128 -36 280 -36q123 0 187.5 40t64.5 117 q0 45 -31 77.5t-80 51.5t-108.5 36.5t-119.5 40.5t-109 54t-80 86.5t-31 130.5z" />
<glyph unicode="t" horiz-adv-x="747" d="M23 879v96l182 26v238q95 31 170 31v-266h264v-125h-264v-557q0 -76 7 -115.5t28 -61.5q36 -39 129 -39q68 0 151 17l8 -125q-102 -27 -206 -27q-155 0 -224 78q-36 42 -49.5 98t-13.5 152v580h-182z" />
<glyph unicode="u" horiz-adv-x="1110" d="M139 322v682h170v-662q0 -121 49 -170q51 -51 162 -51q140 0 277 65v818h170v-1004h-142l-8 74q-170 -103 -342 -103q-167 0 -252 88q-84 84 -84 263z" />
<glyph unicode="v" horiz-adv-x="962" d="M33 1004h178l278 -830l269 830h172l-352 -1004h-187z" />
<glyph unicode="w" horiz-adv-x="1466" d="M33 1004h172l225 -826l215 826h172l244 -836l215 836h158l-279 -1004h-194l-230 768l-209 -768h-196z" />
<glyph unicode="x" horiz-adv-x="944" d="M41 1004h190l256 -383l226 383h186l-332 -502l336 -502h-192l-252 379l-226 -379h-188l334 496z" />
<glyph unicode="y" horiz-adv-x="1110" d="M139 322v682h170v-662q0 -121 49 -170q51 -51 162 -51q140 0 277 65v818h170v-1082q0 -201 -93 -301q-101 -110 -325 -110q-113 0 -203 20l-14 133q98 -12 192 -12q149 0 209 55q64 61 64 217v137q-158 -90 -322 -90q-167 0 -252 88q-84 84 -84 263z" />
<glyph unicode="z" horiz-adv-x="870" d="M74 0v92l518 787h-514v125h717v-99l-514 -780h528v-125h-735z" />
<glyph unicode="{" horiz-adv-x="735" d="M115 463v139q121 22 164 68q57 57 57 223v334q0 145 61 200q68 62 230 62h51v-133h-35q-83 0 -108 -25t-25 -106v-336q0 -100 -13 -159.5t-44 -100.5q-45 -60 -129 -97q86 -38 129 -96q31 -41 44 -100.5t13 -159.5v-336q0 -81 25 -106t108 -25h35v-133h-51 q-162 0 -230 62q-61 55 -61 200v334q0 166 -57 223q-43 46 -164 68z" />
<glyph unicode="|" horiz-adv-x="499" d="M176 -518v2040h148v-2040h-148z" />
<glyph unicode="}" horiz-adv-x="735" d="M57 -291h35q84 0 109 25q24 24 24 106v336q0 99 13.5 158.5t44.5 101.5q43 58 129 96q-84 37 -129 97q-31 42 -44.5 101.5t-13.5 158.5v336q0 82 -24 106q-25 25 -109 25h-35v133h52q161 0 229 -62q61 -55 61 -200v-334q0 -165 58 -223q43 -46 164 -68v-139 q-121 -22 -164 -68q-58 -58 -58 -223v-334q0 -145 -61 -200q-68 -62 -229 -62h-52v133z" />
<glyph unicode="~" horiz-adv-x="1105" d="M166 657q6 199 188 199q69 0 203.5 -41t187.5 -41q40 0 59 20t30 68l106 -22q-6 -199 -188 -199q-69 0 -204 41t-188 41q-40 0 -58.5 -20t-29.5 -68z" />
<glyph unicode="&#xa1;" horiz-adv-x="559" d="M172 915v17q0 53 25.5 76.5t76.5 23.5h11q51 0 76.5 -23.5t25.5 -76.5v-17q0 -53 -25.5 -76.5t-76.5 -23.5h-11q-51 0 -76.5 23.5t-25.5 76.5zM190 -397l29 1026h125l29 -1026h-183z" />
<glyph unicode="&#xa2;" d="M193 489q0 266 131 406q101 109 278 131v236h119v-230q104 -3 211 -31l-10 -131q-140 23 -201 25v-784q107 0 209 20l12 -127q-92 -26 -221 -33v-229h-119v235q-181 18 -276 119q-133 136 -133 393zM371 492q0 -191 84 -287q55 -63 147 -84v762q-231 -56 -231 -391z" />
<glyph unicode="&#xa3;" d="M123 670v92l158 18q-33 143 -33 246q0 200 119.5 300.5t330.5 100.5q140 0 293 -32v-133q-144 24 -274 24q-155 0 -227 -66t-72 -200q0 -89 33 -232h360v-118h-336q25 -131 25 -181q0 -106 -40.5 -185.5t-129.5 -168.5h706v-135h-864q-10 30 -10 78q0 51 45 106 q67 83 96 146.5t29 144.5q0 22 -3.5 50.5t-6 45t-10 53.5t-9.5 46h-180z" />
<glyph unicode="&#xa4;" d="M106 326l156 155q-57 86 -57 217t57 217l-156 156l93 92l153 -155q86 59 213 59q128 0 211 -59l156 155l92 -92l-156 -156q58 -92 58 -217t-58 -217l156 -155l-92 -93l-156 154q-85 -57 -211 -57q-125 0 -213 57l-153 -154zM367 698q0 -233 198 -233q199 0 199 233 q0 234 -199 234q-198 0 -198 -234z" />
<glyph unicode="&#xa5;" d="M57 1401h195l313 -674l330 674h178l-397 -770h242v-117h-277v-96h277v-117h-277v-301h-172v301h-274v117h274v96h-274v117h245z" />
<glyph unicode="&#xa6;" horiz-adv-x="499" d="M176 274h148v-792h-148v792zM176 731v791h148v-791h-148z" />
<glyph unicode="&#xa7;" horiz-adv-x="1136" d="M180 1143q0 77 30 133t84 88.5t122 47.5t151 15q165 0 297 -38l-22 -129q-135 32 -269 32q-119 0 -174 -33.5t-55 -107.5q0 -62 38 -96t132 -56l148 -32q157 -34 225.5 -95t68.5 -190q0 -131 -100 -217q100 -74 100 -209q0 -62 -20 -110.5t-55 -81t-84.5 -54t-106 -30.5 t-121.5 -9q-76 0 -166 12t-151 29l22 131q156 -37 289 -37q120 0 175 34.5t55 107.5q0 63 -38 96t-132 55l-148 33q-153 33 -223 97t-70 184q0 130 101 217q-103 74 -103 213zM338 731q0 -65 41.5 -98.5t157.5 -59.5l129 -28q34 -7 79 -23q56 59 56 142q-2 68 -43.5 101.5 t-157.5 59.5l-129 29q-46 9 -76 20q-57 -57 -57 -143z" />
<glyph unicode="&#xa8;" horiz-adv-x="839" d="M119 1339v23q0 51 24 74.5t74 23.5h19q50 0 74 -23.5t24 -74.5v-23q0 -51 -24 -74.5t-74 -23.5h-19q-50 0 -74 23.5t-24 74.5zM506 1339v23q0 51 24 74.5t74 23.5h19q50 0 74 -23.5t24 -74.5v-23q0 -51 -24 -74.5t-74 -23.5h-19q-50 0 -74 23.5t-24 74.5z" />
<glyph unicode="&#xa9;" horiz-adv-x="1572" d="M82 700q0 150 47.5 282t135 231t222 156.5t299.5 57.5t300 -57.5t222.5 -156.5t135 -231t47.5 -282q0 -120 -29.5 -229t-89 -200t-143 -158t-197.5 -104.5t-246 -37.5q-165 0 -299.5 57.5t-222 157.5t-135 232t-47.5 282zM225 700q0 -279 150.5 -439.5t410.5 -160.5 t411 160.5t151 439.5t-151 438.5t-411 159.5t-410.5 -159.5t-150.5 -438.5zM506 705q0 173 82.5 267.5t226.5 94.5q91 0 172 -31l-12 -92q-77 23 -146 23q-104 0 -150 -66.5t-46 -195.5q0 -136 49 -199.5t152 -63.5q48 0 145 19l4 -94q-80 -25 -166 -25q-311 0 -311 363z " />
<glyph unicode="&#xaa;" horiz-adv-x="833" d="M123 926q0 209 287 209h135v55q0 70 -35 98.5t-121 28.5q-91 0 -194 -21l-7 107q114 24 218 24q145 0 208.5 -58.5t63.5 -184.5v-459h-105l-12 45q-93 -59 -203 -59q-108 0 -171.5 56.5t-63.5 158.5zM258 928q0 -103 131 -103q81 0 156 33v174h-127q-84 0 -122 -25 t-38 -79z" />
<glyph unicode="&#xab;" horiz-adv-x="1077" d="M147 537q0 27 13 51.5t49 64.5l270 308l80 -66l-244 -358l244 -359l-80 -65l-270 307q-36 40 -49 65t-13 52zM535 537q0 28 13 52t48 64l270 308l80 -66l-244 -358l244 -359l-80 -65l-270 307q-35 40 -48 64.5t-13 52.5z" />
<glyph unicode="&#xac;" horiz-adv-x="1105" d="M213 795v129h680v-498h-129v369h-551z" />
<glyph unicode="&#xad;" horiz-adv-x="659" d="M123 459v145h414v-145h-414z" />
<glyph unicode="&#xae;" horiz-adv-x="1572" d="M82 700q0 150 47.5 282t135 231t222 156.5t299.5 57.5t300 -57.5t222.5 -156.5t135 -231t47.5 -282q0 -120 -29.5 -229t-89 -200t-143 -158t-197.5 -104.5t-246 -37.5q-165 0 -299.5 57.5t-222 157.5t-135 232t-47.5 282zM225 700q0 -279 150.5 -439.5t410.5 -160.5 t411 160.5t151 439.5t-151 438.5t-411 159.5t-410.5 -159.5t-150.5 -438.5zM555 358v701h215q151 0 211 -60q53 -53 53 -151q0 -151 -123 -201l146 -289h-127l-129 269h-127v-269h-119zM674 721h96q81 0 109 22q34 27 34 105q0 62 -28 90q-31 27 -115 27h-96v-244z" />
<glyph unicode="&#xaf;" horiz-adv-x="839" d="M152 1272v137h536v-137h-536z" />
<glyph unicode="&#xb0;" horiz-adv-x="966" d="M135 1067q0 168 91.5 264t256.5 96t256.5 -96t91.5 -264t-91.5 -264t-256.5 -96t-256.5 96t-91.5 264zM287 1067q0 -229 196 -229q197 0 197 229t-197 229q-196 0 -196 -229z" />
<glyph unicode="&#xb1;" horiz-adv-x="1105" d="M213 0v129h680v-129h-680zM213 610v129h274v275h129v-275h277v-129h-277v-276h-129v276h-274z" />
<glyph unicode="&#xb2;" horiz-adv-x="966" d="M213 778q0 37 13 64t46 65l164 191q78 90 105.5 136.5t27.5 96.5q0 53 -32 78q-37 29 -123 29q-64 0 -185 -17v109q114 24 207 24q157 0 228 -71q57 -57 57 -146q0 -88 -67 -181t-277 -306h350v-117h-508q-6 18 -6 45z" />
<glyph unicode="&#xb3;" horiz-adv-x="966" d="M221 739v115q85 -18 160 -18q109 0 156 41q36 29 36 92t-36 92q-42 37 -160 37h-21v104h21q110 0 149 39q33 29 33 90q0 54 -35 78q-39 29 -135 29q-54 0 -160 -13v111q81 18 193 18q129 0 203.5 -57.5t74.5 -161.5q0 -134 -112 -180q137 -47 137 -199 q0 -114 -86.5 -175.5t-230.5 -61.5q-105 0 -187 20z" />
<glyph unicode="&#xb4;" horiz-adv-x="839" d="M190 1255l361 320l96 -129l-391 -281z" />
<glyph unicode="&#xb5;" horiz-adv-x="1114" d="M143 -461v1465h170v-662q0 -121 49 -170q51 -51 162 -51q140 0 277 65v818h170v-1004h-142l-8 74q-170 -103 -342 -103q-90 0 -166 29v-461h-170z" />
<glyph unicode="&#xb6;" horiz-adv-x="1232" d="M119 1034q0 157 86 252q106 115 327 115h576v-135h-143v-1682h-148v1682h-162v-1682h-147v1084q-180 0 -284.5 96t-104.5 270z" />
<glyph unicode="&#xb7;" horiz-adv-x="464" d="M123 723v8q0 111 102 111h15q102 0 102 -111v-8q0 -111 -102 -111h-15q-102 0 -102 111z" />
<glyph unicode="&#xb8;" horiz-adv-x="839" d="M233 -338q72 -16 138 -16q104 0 104 57q0 23 -24 39.5t-58.5 28t-69.5 26t-59 42t-24 65.5q0 57 53 110h94q-18 -36 -18 -67q0 -18 17.5 -32.5t44 -23.5t57 -23t57 -31t44 -49t17.5 -75q0 -87 -56.5 -134.5t-158.5 -47.5q-74 0 -158 25v106z" />
<glyph unicode="&#xb9;" horiz-adv-x="966" d="M272 733v115h164v577h-155v109q142 10 211 10q50 0 69 -16t19 -55v-625h137v-115h-445z" />
<glyph unicode="&#xba;" horiz-adv-x="860" d="M109 1069q0 169 83 263.5t238 94.5t238.5 -94.5t83.5 -263.5t-83.5 -263.5t-238.5 -94.5t-238 94.5t-83 263.5zM252 1069q0 -240 178 -240t178 240t-178 240t-178 -240z" />
<glyph unicode="&#xbb;" horiz-adv-x="1077" d="M131 178l244 359l-244 358l80 66l270 -308q36 -40 49 -64.5t13 -51.5t-13 -52t-49 -65l-270 -307zM518 178l244 359l-244 358l80 66l270 -308q36 -40 49 -64.5t13 -51.5t-13 -52t-49 -65l-270 -307z" />
<glyph unicode="&#xbc;" horiz-adv-x="1945" d="M221 608v115h164v577h-156v109q142 10 211 10q50 0 69 -16t19 -55v-625h138v-115h-445zM528 -29l719 1456h156l-717 -1456h-158zM1159 233q0 35 21 97l170 489h137l-172 -506h219v176h139v-176h96v-118h-96v-195h-139v195h-371q-4 16 -4 38z" />
<glyph unicode="&#xbd;" horiz-adv-x="1945" d="M213 608v115h164v577h-156v109q143 10 211 10q50 0 69 -16t19 -55v-625h137v-115h-444zM520 -29l719 1456h156l-717 -1456h-158zM1214 45q0 37 13 63.5t47 65.5l164 191q78 90 105.5 136.5t27.5 96.5q0 52 -33 78q-37 29 -123 29q-63 0 -184 -17v109q114 24 207 24 q156 0 227 -71q57 -57 57 -146q0 -88 -67 -181t-277 -306h351v-117h-508q-7 21 -7 45z" />
<glyph unicode="&#xbe;" horiz-adv-x="1945" d="M201 614v115q85 -18 159 -18q109 0 156 41q37 30 37 92t-37 92q-42 37 -160 37h-20v104h20q111 0 150 39q33 29 33 90q0 54 -35 78q-39 29 -135 29q-54 0 -160 -13v111q85 19 192 19q129 0 204 -57.5t75 -162.5q0 -134 -113 -180q138 -48 138 -199q0 -114 -87 -175.5 t-231 -61.5q-104 0 -186 20zM532 -29l719 1456h156l-717 -1456h-158zM1159 233q0 35 21 97l170 489h137l-172 -506h219v176h139v-176h96v-118h-96v-195h-139v195h-371q-4 16 -4 38z" />
<glyph unicode="&#xbf;" horiz-adv-x="847" d="M70 -102q0 105 42 189.5t136 191.5q51 58 71.5 83.5t47.5 63t36.5 63.5t17 60.5t9.5 79.5h125q6 -34 6 -64q0 -82 -28 -147.5t-107 -157.5l-25 -29q-80 -94 -115.5 -162t-35.5 -149q0 -97 57 -145q60 -51 195 -51q126 0 246 30l26 -133q-145 -45 -297 -45q-213 0 -319 98 q-88 85 -88 224zM377 915v17q0 53 25.5 76.5t76.5 23.5h10q103 0 103 -100v-17q0 -100 -103 -100h-10q-51 0 -76.5 23.5t-25.5 76.5z" />
<glyph unicode="&#xc0;" horiz-adv-x="1210" d="M37 0l444 1401h209l484 -1401h-191l-123 373h-530l-115 -373h-178zM336 1835l96 129l361 -319l-66 -91zM375 516h438l-225 692h-2z" />
<glyph unicode="&#xc1;" horiz-adv-x="1210" d="M37 0l444 1401h209l484 -1401h-191l-123 373h-530l-115 -373h-178zM356 1645l361 319l96 -129l-391 -281zM375 516h438l-225 692h-2z" />
<glyph unicode="&#xc2;" horiz-adv-x="1210" d="M37 0l444 1401h209l484 -1401h-191l-123 373h-530l-115 -373h-178zM264 1620l244 301h145l242 -301l-61 -61l-254 219l-254 -219zM375 516h438l-225 692h-2z" />
<glyph unicode="&#xc3;" horiz-adv-x="1210" d="M37 0l444 1401h209l484 -1401h-191l-123 373h-530l-115 -373h-178zM264 1667q8 101 52.5 157t119.5 56q57 0 153.5 -40t129.5 -40q32 0 52 18.5t30 63.5l96 -16q-8 -101 -52.5 -157t-119.5 -56q-57 0 -153.5 40t-129.5 40q-32 0 -52 -18.5t-30 -63.5zM375 516h438 l-225 692h-2z" />
<glyph unicode="&#xc4;" horiz-adv-x="1210" d="M37 0l444 1401h209l484 -1401h-191l-123 373h-530l-115 -373h-178zM283 1729v22q0 51 24 74.5t74 23.5h18q99 0 99 -98v-22q0 -99 -99 -99h-18q-98 0 -98 99zM375 516h438l-225 692h-2zM670 1729v22q0 51 24 74.5t74 23.5h18q99 0 99 -98v-22q0 -99 -99 -99h-18 q-98 0 -98 99z" />
<glyph unicode="&#xc5;" horiz-adv-x="1210" d="M37 0l444 1401h209l484 -1401h-191l-123 373h-530l-115 -373h-178zM352 1784v18q0 108 62 162.5t168 54.5h8q106 0 167.5 -54t61.5 -163v-18q0 -109 -61.5 -163t-167.5 -54h-8q-106 0 -168 54.5t-62 162.5zM375 516h438l-225 692h-2zM467 1788q0 -62 29 -89.5t88 -27.5h4 q59 0 88 27.5t29 89.5v10q0 62 -29 89.5t-88 27.5h-4q-59 0 -88 -27.5t-29 -89.5v-10z" />
<glyph unicode="&#xc6;" horiz-adv-x="1845" d="M20 0l820 1401h891l-17 -144h-604v-475h489v-147h-489v-492h633v-143h-815v373h-502l-215 -373h-191zM508 516h420v725z" />
<glyph unicode="&#xc7;" horiz-adv-x="1136" d="M115 692q0 395 182 580q73 76 182.5 115.5t241.5 39.5q181 0 326 -53l-25 -139q-144 39 -281 39q-212 0 -313 -113q-123 -134 -123 -465q0 -326 129 -458q112 -115 352 -115q103 0 248 29l17 -140q-134 -41 -310 -41q-53 0 -71 2q-2 -10 -2 -26q0 -18 17.5 -32.5 t44 -23.5t57 -23t57 -31t44 -49t17.5 -75q0 -87 -56.5 -134.5t-158.5 -47.5q-74 0 -158 25v106q72 -16 138 -16q104 0 104 57q0 23 -24 39.5t-59 28t-69.5 26t-58.5 42t-24 65.5q0 47 24 86q-448 91 -448 702z" />
<glyph unicode="&#xc8;" horiz-adv-x="1087" d="M170 0v1401h803l-17 -144h-604v-475h490v-147h-490v-492h633v-143h-815zM352 1835l97 129l360 -319l-66 -91z" />
<glyph unicode="&#xc9;" horiz-adv-x="1087" d="M170 0v1401h803l-17 -144h-604v-475h490v-147h-490v-492h633v-143h-815zM360 1645l361 319l96 -129l-391 -281z" />
<glyph unicode="&#xca;" horiz-adv-x="1087" d="M170 0v1401h803l-17 -144h-604v-475h490v-147h-490v-492h633v-143h-815zM262 1620l244 301h145l242 -301l-62 -61l-253 219l-254 -219z" />
<glyph unicode="&#xcb;" horiz-adv-x="1087" d="M170 0v1401h803l-17 -144h-604v-475h490v-147h-490v-492h633v-143h-815zM270 1729v22q0 98 99 98h18q50 0 74 -23.5t24 -74.5v-22q0 -99 -98 -99h-18q-99 0 -99 99zM657 1729v22q0 98 99 98h18q50 0 74 -23.5t24 -74.5v-22q0 -99 -98 -99h-18q-99 0 -99 99z" />
<glyph unicode="&#xcc;" horiz-adv-x="534" d="M35 1835l96 129l361 -319l-66 -91zM176 0v1401h182v-1401h-182z" />
<glyph unicode="&#xcd;" horiz-adv-x="534" d="M47 1645l361 319l96 -129l-391 -281zM176 0v1401h182v-1401h-182z" />
<glyph unicode="&#xce;" horiz-adv-x="534" d="M-47 1620l244 301h145l242 -301l-62 -61l-254 219l-254 -219zM176 0v1401h182v-1401h-182z" />
<glyph unicode="&#xcf;" horiz-adv-x="534" d="M-33 1729v22q0 98 99 98h18q50 0 74 -23.5t24 -74.5v-22q0 -99 -98 -99h-18q-99 0 -99 99zM176 0v1401h182v-1401h-182zM354 1729v22q0 98 99 98h18q50 0 74 -23.5t24 -74.5v-22q0 -99 -98 -99h-18q-99 0 -99 99z" />
<glyph unicode="&#xd0;" horiz-adv-x="1351" d="M25 635v147h174v619h354q195 0 323 -41t211 -131q150 -167 150 -520q0 -386 -168 -557q-149 -152 -477 -152h-393v635h-174zM381 145h205q117 0 194.5 25t132.5 78q136 130 136 459q0 289 -103 415q-58 70 -152 101.5t-251 31.5h-162v-473h244v-147h-244v-490z" />
<glyph unicode="&#xd1;" horiz-adv-x="1396" d="M170 0v1401h127l768 -1090v1090h162v-1401h-140l-755 1067v-1067h-162zM381 1667q8 101 52.5 157t119.5 56q57 0 153.5 -40t129.5 -40q32 0 52 18.5t30 63.5l96 -16q-8 -101 -52.5 -157t-119.5 -56q-57 0 -153.5 40t-129.5 40q-32 0 -52 -18.5t-30 -63.5z" />
<glyph unicode="&#xd2;" horiz-adv-x="1347" d="M115 698q0 127 17.5 233.5t58.5 200t104.5 157.5t159.5 101t219 37t219 -37t159.5 -101t104.5 -157.5t58.5 -200t17.5 -233.5t-17.5 -233.5t-58.5 -199.5t-104.5 -157t-159.5 -100.5t-219 -36.5t-219 36.5t-159.5 100.5t-104.5 157t-58.5 199.5t-17.5 233.5zM305 698 q0 -136 17.5 -235.5t58.5 -177t114 -117t179 -39.5t179 39.5t113.5 117t58 177t17.5 235.5t-17.5 235.5t-58 178t-113.5 118.5t-179 40q-85 0 -149 -27t-105.5 -75t-67.5 -121t-36.5 -157t-10.5 -192zM444 1835l97 129l360 -319l-65 -91z" />
<glyph unicode="&#xd3;" horiz-adv-x="1347" d="M115 698q0 127 17.5 233.5t58.5 200t104.5 157.5t159.5 101t219 37t219 -37t159.5 -101t104.5 -157.5t58.5 -200t17.5 -233.5t-17.5 -233.5t-58.5 -199.5t-104.5 -157t-159.5 -100.5t-219 -36.5t-219 36.5t-159.5 100.5t-104.5 157t-58.5 199.5t-17.5 233.5zM305 698 q0 -136 17.5 -235.5t58.5 -177t114 -117t179 -39.5t179 39.5t113.5 117t58 177t17.5 235.5t-17.5 235.5t-58 178t-113.5 118.5t-179 40q-85 0 -149 -27t-105.5 -75t-67.5 -121t-36.5 -157t-10.5 -192zM444 1645l361 319l96 -129l-391 -281z" />
<glyph unicode="&#xd4;" horiz-adv-x="1347" d="M115 698q0 127 17.5 233.5t58.5 200t104.5 157.5t159.5 101t219 37t219 -37t159.5 -101t104.5 -157.5t58.5 -200t17.5 -233.5t-17.5 -233.5t-58.5 -199.5t-104.5 -157t-159.5 -100.5t-219 -36.5t-219 36.5t-159.5 100.5t-104.5 157t-58.5 199.5t-17.5 233.5zM305 698 q0 -136 17.5 -235.5t58.5 -177t114 -117t179 -39.5t179 39.5t113.5 117t58 177t17.5 235.5t-17.5 235.5t-58 178t-113.5 118.5t-179 40q-85 0 -149 -27t-105.5 -75t-67.5 -121t-36.5 -157t-10.5 -192zM358 1620l244 301h146l241 -301l-61 -61l-254 219l-254 -219z" />
<glyph unicode="&#xd5;" horiz-adv-x="1347" d="M115 698q0 127 17.5 233.5t58.5 200t104.5 157.5t159.5 101t219 37t219 -37t159.5 -101t104.5 -157.5t58.5 -200t17.5 -233.5t-17.5 -233.5t-58.5 -199.5t-104.5 -157t-159.5 -100.5t-219 -36.5t-219 36.5t-159.5 100.5t-104.5 157t-58.5 199.5t-17.5 233.5zM305 698 q0 -136 17.5 -235.5t58.5 -177t114 -117t179 -39.5t179 39.5t113.5 117t58 177t17.5 235.5t-17.5 235.5t-58 178t-113.5 118.5t-179 40q-85 0 -149 -27t-105.5 -75t-67.5 -121t-36.5 -157t-10.5 -192zM356 1667q8 101 52.5 157t119.5 56q57 0 153.5 -40t129.5 -40 q32 0 52 18.5t30 63.5l96 -16q-8 -101 -52.5 -157t-119.5 -56q-57 0 -153 40t-129 40q-32 0 -52 -18.5t-30 -63.5z" />
<glyph unicode="&#xd6;" horiz-adv-x="1347" d="M115 698q0 127 17.5 233.5t58.5 200t104.5 157.5t159.5 101t219 37t219 -37t159.5 -101t104.5 -157.5t58.5 -200t17.5 -233.5t-17.5 -233.5t-58.5 -199.5t-104.5 -157t-159.5 -100.5t-219 -36.5t-219 36.5t-159.5 100.5t-104.5 157t-58.5 199.5t-17.5 233.5zM305 698 q0 -136 17.5 -235.5t58.5 -177t114 -117t179 -39.5t179 39.5t113.5 117t58 177t17.5 235.5t-17.5 235.5t-58 178t-113.5 118.5t-179 40q-85 0 -149 -27t-105.5 -75t-67.5 -121t-36.5 -157t-10.5 -192zM373 1729v22q0 51 24 74.5t74 23.5h18q99 0 99 -98v-22q0 -99 -99 -99 h-18q-98 0 -98 99zM760 1729v22q0 51 24 74.5t74 23.5h19q50 0 74 -23.5t24 -74.5v-22q0 -99 -98 -99h-19q-98 0 -98 99z" />
<glyph unicode="&#xd7;" horiz-adv-x="1105" d="M266 479l195 195l-195 194l92 90l193 -192l197 195l90 -93l-195 -194l195 -195l-90 -92l-197 195l-193 -193z" />
<glyph unicode="&#xd8;" horiz-adv-x="1347" d="M115 698q0 127 17.5 233.5t58.5 200t104.5 157.5t159.5 101t219 37q112 0 198 -30l60 153h141l-82 -211q242 -169 242 -641q0 -127 -17.5 -233.5t-58.5 -199.5t-104.5 -157t-159.5 -100.5t-219 -36.5q-108 0 -191 27l-55 -150h-141l78 205q-250 163 -250 645zM305 698 q0 -351 123 -479l387 1026q-64 25 -141 25q-85 0 -149 -27t-105.5 -75t-67.5 -121t-36.5 -157t-10.5 -192zM541 150q58 -21 133 -21q106 0 179 39.5t113.5 117t58 177t17.5 235.5q0 339 -114 469z" />
<glyph unicode="&#xd9;" horiz-adv-x="1329" d="M154 504v897h182v-887q0 -116 20.5 -186.5t67.5 -116.5q87 -84 252 -84q158 0 242 84q92 92 92 303v887h166v-897q0 -278 -138 -410q-129 -123 -366 -123q-246 0 -375 117q-143 128 -143 416zM436 1835l96 129l361 -319l-66 -91z" />
<glyph unicode="&#xda;" horiz-adv-x="1329" d="M154 504v897h182v-887q0 -116 20.5 -186.5t67.5 -116.5q87 -84 252 -84q158 0 242 84q92 92 92 303v887h166v-897q0 -278 -138 -410q-129 -123 -366 -123q-246 0 -375 117q-143 128 -143 416zM477 1645l361 319l96 -129l-391 -281z" />
<glyph unicode="&#xdb;" horiz-adv-x="1329" d="M154 504v897h182v-887q0 -116 20.5 -186.5t67.5 -116.5q87 -84 252 -84q158 0 242 84q92 92 92 303v887h166v-897q0 -278 -138 -410q-129 -123 -366 -123q-246 0 -375 117q-143 128 -143 416zM348 1620l244 301h145l242 -301l-61 -61l-254 219l-254 -219z" />
<glyph unicode="&#xdc;" horiz-adv-x="1329" d="M154 504v897h182v-887q0 -116 20.5 -186.5t67.5 -116.5q87 -84 252 -84q158 0 242 84q92 92 92 303v887h166v-897q0 -278 -138 -410q-129 -123 -366 -123q-246 0 -375 117q-143 128 -143 416zM362 1729v22q0 98 99 98h18q99 0 99 -98v-22q0 -99 -99 -99h-18q-99 0 -99 99 zM750 1729v22q0 51 24 74.5t74 23.5h18q99 0 99 -98v-22q0 -99 -99 -99h-18q-98 0 -98 99z" />
<glyph unicode="&#xdd;" horiz-adv-x="1177" d="M33 1401h200l357 -674l371 674h184l-475 -832v-569h-183v573zM401 1645l361 319l96 -129l-391 -281z" />
<glyph unicode="&#xde;" horiz-adv-x="1187" d="M170 0v1401h182v-256h219q296 0 412 -119q102 -102 102 -305q0 -226 -114 -340q-118 -115 -359 -115h-260v-266h-182zM352 414h199q196 0 270 69q76 73 76 234q0 143 -66 209q-75 75 -274 75h-205v-587z" />
<glyph unicode="&#xdf;" horiz-adv-x="1323" d="M29 879v96l182 26v23q0 232 116.5 353.5t331.5 121.5q183 0 287.5 -83.5t104.5 -223.5q0 -54 -16 -100.5t-42 -80t-57.5 -62.5t-62.5 -53.5t-57 -48t-42 -50.5t-16 -56q0 -37 26.5 -64.5t68.5 -47t93.5 -38.5t102.5 -44.5t93 -59t68.5 -88.5t26.5 -127q0 -143 -99.5 -222 t-297.5 -79q-162 0 -297 41l10 131q143 -34 281 -34q239 0 239 151q0 40 -21 72t-54.5 52t-77 39.5t-89 35t-89 38.5t-77 50t-54.5 70t-21 98q0 45 16 85t42 69.5t57 57.5t62.5 56t57.5 57t42 67t16 81q0 80 -56.5 127t-160.5 47q-137 0 -211 -86q-38 -44 -56 -107.5 t-18 -164.5v-1004h-170v879h-182z" />
<glyph unicode="&#xe0;" horiz-adv-x="1034" d="M90 285q0 137 86 217q104 96 340 96h209v64q0 118 -51 169q-63 60 -209 60q-117 0 -270 -25l-7 131q143 35 306 35q215 0 313 -92q47 -46 67.5 -109.5t20.5 -162.5v-668h-137l-10 68q-150 -97 -316 -97q-168 0 -262 97q-80 83 -80 217zM262 289q0 -89 53.5 -134.5 t153.5 -45.5q126 0 256 65v299h-184q-159 0 -224 -51q-55 -46 -55 -133zM276 1446l97 129l360 -320l-65 -90z" />
<glyph unicode="&#xe1;" horiz-adv-x="1034" d="M90 285q0 137 86 217q104 96 340 96h209v64q0 118 -51 169q-63 60 -209 60q-117 0 -270 -25l-7 131q143 35 306 35q215 0 313 -92q47 -46 67.5 -109.5t20.5 -162.5v-668h-137l-10 68q-150 -97 -316 -97q-168 0 -262 97q-80 83 -80 217zM262 289q0 -89 53.5 -134.5 t153.5 -45.5q126 0 256 65v299h-184q-159 0 -224 -51q-55 -46 -55 -133zM305 1255l361 320l96 -129l-391 -281z" />
<glyph unicode="&#xe2;" horiz-adv-x="1034" d="M90 285q0 137 86 217q104 96 340 96h209v64q0 118 -51 169q-63 60 -209 60q-117 0 -270 -25l-7 131q143 35 306 35q215 0 313 -92q47 -46 67.5 -109.5t20.5 -162.5v-668h-137l-10 68q-150 -97 -316 -97q-168 0 -262 97q-80 83 -80 217zM203 1229l243 301h146l242 -301 l-62 -62l-254 219l-254 -219zM262 289q0 -89 53.5 -134.5t153.5 -45.5q126 0 256 65v299h-184q-159 0 -224 -51q-55 -46 -55 -133z" />
<glyph unicode="&#xe3;" horiz-adv-x="1034" d="M90 285q0 137 86 217q104 96 340 96h209v64q0 118 -51 169q-63 60 -209 60q-117 0 -270 -25l-7 131q143 35 306 35q215 0 313 -92q47 -46 67.5 -109.5t20.5 -162.5v-668h-137l-10 68q-150 -97 -316 -97q-168 0 -262 97q-80 83 -80 217zM190 1268q8 101 52.5 157t119.5 56 q57 0 153.5 -40t129.5 -40q32 0 52 18.5t30 63.5l96 -17q-8 -101 -52.5 -157t-119.5 -56q-57 0 -153 40t-129 40q-32 0 -52 -18.5t-30 -63.5zM262 289q0 -89 53.5 -134.5t153.5 -45.5q126 0 256 65v299h-184q-159 0 -224 -51q-55 -46 -55 -133z" />
<glyph unicode="&#xe4;" horiz-adv-x="1034" d="M90 285q0 137 86 217q104 96 340 96h209v64q0 118 -51 169q-63 60 -209 60q-117 0 -270 -25l-7 131q143 35 306 35q215 0 313 -92q47 -46 67.5 -109.5t20.5 -162.5v-668h-137l-10 68q-150 -97 -316 -97q-168 0 -262 97q-80 83 -80 217zM207 1339v23q0 51 24 74.5t74 23.5 h19q50 0 74 -23.5t24 -74.5v-23q0 -51 -24 -74.5t-74 -23.5h-19q-50 0 -74 23.5t-24 74.5zM262 289q0 -89 53.5 -134.5t153.5 -45.5q126 0 256 65v299h-184q-159 0 -224 -51q-55 -46 -55 -133zM594 1339v23q0 51 24 74.5t74 23.5h19q50 0 74 -23.5t24 -74.5v-23 q0 -51 -24 -74.5t-74 -23.5h-19q-50 0 -74 23.5t-24 74.5z" />
<glyph unicode="&#xe5;" horiz-adv-x="1034" d="M90 285q0 137 86 217q104 96 340 96h209v64q0 118 -51 169q-63 60 -209 60q-117 0 -270 -25l-7 131q143 35 306 35q215 0 313 -92q47 -46 67.5 -109.5t20.5 -162.5v-668h-137l-10 68q-150 -97 -316 -97q-168 0 -262 97q-80 83 -80 217zM262 289q0 -89 53.5 -134.5 t153.5 -45.5q126 0 256 65v299h-184q-159 0 -224 -51q-55 -46 -55 -133zM276 1395v18q0 108 62 162.5t168 54.5h8q106 0 167.5 -54t61.5 -163v-18q0 -109 -61.5 -163t-167.5 -54h-8q-106 0 -168 54.5t-62 162.5zM391 1399q0 -62 29 -89.5t88 -27.5h4q59 0 88 27.5t29 89.5 v10q0 62 -29 89.5t-88 27.5h-4q-59 0 -88 -27.5t-29 -89.5v-10z" />
<glyph unicode="&#xe6;" horiz-adv-x="1671" d="M90 285q0 137 86 217q104 96 340 96h209v64q0 118 -51 169q-63 60 -209 60q-117 0 -270 -25l-7 131q143 35 306 35q215 0 313 -92q22 -22 37 -43q114 135 315 135q207 0 311.5 -137.5t104.5 -390.5v-39q0 -23 -25 -23h-647q0 -174 88 -256q81 -75 256 -75q121 0 248 26 l16 -127q-134 -39 -297 -39q-237 0 -358 121l-12 12q-187 -133 -402 -133q-175 0 -272 97q-80 80 -80 217zM262 289q0 -89 53.5 -134.5t153.5 -45.5q160 0 309 94q-50 112 -53 270h-184q-159 0 -224 -51q-55 -46 -55 -133zM903 567h504q-5 152 -66 240t-182 88 q-125 0 -189.5 -86t-66.5 -242z" />
<glyph unicode="&#xe7;" horiz-adv-x="921" d="M90 489q0 266 131 406q128 137 369 137q118 0 239 -31l-10 -131q-131 25 -209 25q-175 0 -258.5 -100.5t-83.5 -302.5q0 -191 84 -287q81 -94 266 -94q107 0 209 20l13 -127q-121 -33 -252 -33q-31 0 -47 2q-4 -12 -4 -26q0 -18 17.5 -32.5t44 -23.5t57 -23t57 -31 t44 -49t17.5 -75q0 -87 -56.5 -134.5t-158.5 -47.5q-74 0 -158 25v106q72 -16 138 -16q104 0 104 57q0 23 -24 39.5t-58.5 28t-69.5 26t-59 42t-24 65.5q0 44 28 82q-133 27 -213 110q-133 136 -133 393z" />
<glyph unicode="&#xe8;" horiz-adv-x="1036" d="M90 500q0 261 117.5 396.5t316.5 135.5q207 0 311.5 -137.5t104.5 -390.5v-39q0 -23 -25 -23h-647q0 -174 88 -256q81 -75 256 -75q121 0 248 26l17 -127q-134 -39 -297 -39q-238 0 -359 121q-131 131 -131 408zM268 567h504q-5 152 -66 240t-182 88q-125 0 -189.5 -86 t-66.5 -242zM289 1446l96 129l360 -320l-65 -90z" />
<glyph unicode="&#xe9;" horiz-adv-x="1036" d="M90 500q0 261 117.5 396.5t316.5 135.5q207 0 311.5 -137.5t104.5 -390.5v-39q0 -23 -25 -23h-647q0 -174 88 -256q81 -75 256 -75q121 0 248 26l17 -127q-134 -39 -297 -39q-238 0 -359 121q-131 131 -131 408zM268 567h504q-5 152 -66 240t-182 88q-125 0 -189.5 -86 t-66.5 -242zM309 1255l361 320l96 -129l-391 -281z" />
<glyph unicode="&#xea;" horiz-adv-x="1036" d="M90 500q0 261 117.5 396.5t316.5 135.5q207 0 311.5 -137.5t104.5 -390.5v-39q0 -23 -25 -23h-647q0 -174 88 -256q81 -75 256 -75q121 0 248 26l17 -127q-134 -39 -297 -39q-238 0 -359 121q-131 131 -131 408zM217 1229l244 301h145l242 -301l-62 -62l-254 219 l-253 -219zM268 567h504q-5 152 -66 240t-182 88q-125 0 -189.5 -86t-66.5 -242z" />
<glyph unicode="&#xeb;" horiz-adv-x="1036" d="M90 500q0 261 117.5 396.5t316.5 135.5q207 0 311.5 -137.5t104.5 -390.5v-39q0 -23 -25 -23h-647q0 -174 88 -256q81 -75 256 -75q121 0 248 26l17 -127q-134 -39 -297 -39q-238 0 -359 121q-131 131 -131 408zM229 1339v23q0 98 99 98h18q50 0 74 -23.5t24 -74.5v-23 q0 -51 -24 -74.5t-74 -23.5h-18q-99 0 -99 98zM268 567h504q-5 152 -66 240t-182 88q-125 0 -189.5 -86t-66.5 -242zM616 1339v23q0 98 99 98h18q50 0 74 -23.5t24 -74.5v-23q0 -51 -24 -74.5t-74 -23.5h-18q-99 0 -99 98z" />
<glyph unicode="&#xec;" horiz-adv-x="464" d="M-4 1446l96 129l361 -320l-66 -90zM147 0v1004h170v-1004h-170z" />
<glyph unicode="&#xed;" horiz-adv-x="464" d="M33 1255l360 320l96 -129l-391 -281zM147 0v1004h170v-1004h-170z" />
<glyph unicode="&#xee;" horiz-adv-x="464" d="M-82 1229l244 301h145l242 -301l-62 -62l-254 219l-253 -219zM147 0v1004h170v-1004h-170z" />
<glyph unicode="&#xef;" horiz-adv-x="464" d="M-68 1339v23q0 98 99 98h18q50 0 74 -23.5t24 -74.5v-23q0 -51 -24 -74.5t-74 -23.5h-18q-99 0 -99 98zM147 0v1004h170v-1004h-170zM319 1339v23q0 98 99 98h18q99 0 99 -98v-23q0 -98 -99 -98h-18q-99 0 -99 98z" />
<glyph unicode="&#xf0;" horiz-adv-x="1097" d="M90 459q0 229 110.5 361t309.5 132q142 0 270 -55q-58 194 -205 373l-157 -125l-66 82l152 121q-72 75 -172 159l80 82q106 -75 192 -155l166 133l66 -82l-154 -125q317 -341 317 -791q0 -135 -26 -242.5t-79.5 -188t-143 -124t-209.5 -43.5q-215 0 -333 132.5 t-118 355.5zM264 467q0 -163 69 -260.5t210 -97.5q78 0 133.5 32.5t87.5 95t46.5 143.5t14.5 187q0 107 -18 195q-53 23 -124.5 38t-131.5 15q-287 0 -287 -348z" />
<glyph unicode="&#xf1;" horiz-adv-x="1114" d="M143 0v1004h142l8 -74q168 102 346 102q167 0 252 -88q84 -84 84 -262v-682h-170v662q0 120 -49 169q-52 52 -162 52q-142 0 -281 -66v-817h-170zM266 1268q8 101 52.5 157t119.5 56q57 0 153.5 -40t129.5 -40q32 0 52 18.5t30 63.5l96 -17q-8 -101 -52.5 -157 t-119.5 -56q-57 0 -153.5 40t-129.5 40q-32 0 -52 -18.5t-30 -63.5z" />
<glyph unicode="&#xf2;" horiz-adv-x="1093" d="M90 502q0 256 114 393t343 137t343 -137t114 -393t-114 -393.5t-343 -137.5t-343 137.5t-114 393.5zM268 502q0 -198 64.5 -294.5t214.5 -96.5q149 0 213.5 96.5t64.5 294.5t-64.5 294.5t-213.5 96.5q-150 0 -214.5 -96.5t-64.5 -294.5zM313 1446l97 129l360 -320 l-65 -90z" />
<glyph unicode="&#xf3;" horiz-adv-x="1093" d="M90 502q0 256 114 393t343 137t343 -137t114 -393t-114 -393.5t-343 -137.5t-343 137.5t-114 393.5zM268 502q0 -198 64.5 -294.5t214.5 -96.5q149 0 213.5 96.5t64.5 294.5t-64.5 294.5t-213.5 96.5q-150 0 -214.5 -96.5t-64.5 -294.5zM330 1255l360 320l96 -129 l-391 -281z" />
<glyph unicode="&#xf4;" horiz-adv-x="1093" d="M90 502q0 256 114 393t343 137t343 -137t114 -393t-114 -393.5t-343 -137.5t-343 137.5t-114 393.5zM231 1229l244 301h146l241 -301l-61 -62l-254 219l-254 -219zM268 502q0 -198 64.5 -294.5t214.5 -96.5q149 0 213.5 96.5t64.5 294.5t-64.5 294.5t-213.5 96.5 q-150 0 -214.5 -96.5t-64.5 -294.5z" />
<glyph unicode="&#xf5;" horiz-adv-x="1093" d="M90 502q0 256 114 393t343 137t343 -137t114 -393t-114 -393.5t-343 -137.5t-343 137.5t-114 393.5zM229 1268q8 101 52.5 157t119.5 56q57 0 153.5 -40t129.5 -40q32 0 52 18.5t30 63.5l96 -17q-8 -101 -52.5 -157t-119.5 -56q-57 0 -153 40t-129 40q-32 0 -52 -18.5 t-30 -63.5zM268 502q0 -198 64.5 -294.5t214.5 -96.5q149 0 213.5 96.5t64.5 294.5t-64.5 294.5t-213.5 96.5q-150 0 -214.5 -96.5t-64.5 -294.5z" />
<glyph unicode="&#xf6;" horiz-adv-x="1093" d="M90 502q0 256 114 393t343 137t343 -137t114 -393t-114 -393.5t-343 -137.5t-343 137.5t-114 393.5zM246 1339v23q0 51 24 74.5t74 23.5h18q99 0 99 -98v-23q0 -98 -99 -98h-18q-50 0 -74 23.5t-24 74.5zM268 502q0 -198 64.5 -294.5t214.5 -96.5q149 0 213.5 96.5 t64.5 294.5t-64.5 294.5t-213.5 96.5q-150 0 -214.5 -96.5t-64.5 -294.5zM633 1339v23q0 51 24 74.5t74 23.5h19q50 0 74 -23.5t24 -74.5v-23q0 -51 -24 -74.5t-74 -23.5h-19q-50 0 -74 23.5t-24 74.5z" />
<glyph unicode="&#xf7;" horiz-adv-x="1105" d="M213 610v129h680v-129h-680zM455 358v2q0 107 102 107h6q103 0 103 -107v-2q0 -106 -103 -106h-6q-102 0 -102 106zM455 989v2q0 107 102 107h6q103 0 103 -107v-2q0 -106 -103 -106h-6q-102 0 -102 106z" />
<glyph unicode="&#xf8;" horiz-adv-x="1093" d="M90 502q0 256 114 393t343 137q67 0 125 -12l51 141h135l-67 -186q213 -119 213 -473q0 -256 -114 -393.5t-343 -137.5q-59 0 -119 13l-51 -142h-135l65 183q-217 118 -217 477zM268 502q0 -243 94 -330l261 713q-31 8 -76 8q-150 0 -214.5 -96.5t-64.5 -294.5zM477 117 q30 -6 70 -6q149 0 213.5 96.5t64.5 294.5q0 233 -90 323z" />
<glyph unicode="&#xf9;" horiz-adv-x="1110" d="M139 322v682h170v-662q0 -121 49 -170q51 -51 162 -51q140 0 277 65v818h170v-1004h-142l-8 74q-170 -103 -342 -103q-167 0 -252 88q-84 84 -84 263zM305 1446l96 129l361 -320l-66 -90z" />
<glyph unicode="&#xfa;" horiz-adv-x="1110" d="M139 322v682h170v-662q0 -121 49 -170q51 -51 162 -51q140 0 277 65v818h170v-1004h-142l-8 74q-170 -103 -342 -103q-167 0 -252 88q-84 84 -84 263zM367 1255l360 320l96 -129l-391 -281z" />
<glyph unicode="&#xfb;" horiz-adv-x="1110" d="M139 322v682h170v-662q0 -121 49 -170q51 -51 162 -51q140 0 277 65v818h170v-1004h-142l-8 74q-170 -103 -342 -103q-167 0 -252 88q-84 84 -84 263zM240 1229l243 301h146l241 -301l-61 -62l-254 219l-254 -219z" />
<glyph unicode="&#xfc;" horiz-adv-x="1110" d="M139 322v682h170v-662q0 -121 49 -170q51 -51 162 -51q140 0 277 65v818h170v-1004h-142l-8 74q-170 -103 -342 -103q-167 0 -252 88q-84 84 -84 263zM254 1339v23q0 51 24 74.5t74 23.5h19q50 0 74 -23.5t24 -74.5v-23q0 -51 -24 -74.5t-74 -23.5h-19q-50 0 -74 23.5 t-24 74.5zM641 1339v23q0 51 24 74.5t74 23.5h19q50 0 74 -23.5t24 -74.5v-23q0 -51 -24 -74.5t-74 -23.5h-19q-50 0 -74 23.5t-24 74.5z" />
<glyph unicode="&#xfd;" horiz-adv-x="1110" d="M139 322v682h170v-662q0 -121 49 -170q51 -51 162 -51q140 0 277 65v818h170v-1082q0 -201 -93 -301q-101 -110 -325 -110q-113 0 -203 20l-14 133q98 -12 192 -12q149 0 209 55q64 61 64 217v137q-158 -90 -322 -90q-167 0 -252 88q-84 84 -84 263zM350 1255l361 320 l96 -129l-391 -281z" />
<glyph unicode="&#xfe;" horiz-adv-x="1081" d="M143 -461v1925h170v-522q145 90 293 90q190 0 287.5 -140t97.5 -386q0 -274 -102 -404.5t-289 -130.5q-78 0 -154.5 20.5t-132.5 55.5v-508h-170zM313 174q45 -27 112.5 -44t131.5 -17q137 0 196.5 90.5t59.5 304.5q0 193 -59.5 286t-184.5 93q-127 0 -256 -68v-645z" />
<glyph unicode="&#xff;" horiz-adv-x="1110" d="M139 322v682h170v-662q0 -121 49 -170q51 -51 162 -51q140 0 277 65v818h170v-1082q0 -201 -93 -301q-101 -110 -325 -110q-113 0 -203 20l-14 133q98 -12 192 -12q149 0 209 55q64 61 64 217v137q-158 -90 -322 -90q-167 0 -252 88q-84 84 -84 263zM254 1339v23 q0 51 24 74.5t74 23.5h19q50 0 74 -23.5t24 -74.5v-23q0 -51 -24 -74.5t-74 -23.5h-19q-50 0 -74 23.5t-24 74.5zM641 1339v23q0 51 24 74.5t74 23.5h19q50 0 74 -23.5t24 -74.5v-23q0 -51 -24 -74.5t-74 -23.5h-19q-50 0 -74 23.5t-24 74.5z" />
<glyph unicode="&#x152;" horiz-adv-x="1873" d="M115 700q0 346 192 529q181 172 567 172h885l-16 -144h-604v-475h489v-147h-489v-492h633v-143h-914q-367 0 -547 162q-196 174 -196 538zM305 700q0 -287 139 -426q135 -135 449 -135h63v1123h-59q-327 0 -463 -144q-129 -138 -129 -418z" />
<glyph unicode="&#x153;" horiz-adv-x="1771" d="M90 502q0 256 114 393t343 137q253 0 368 -172q117 172 345 172q207 0 311 -137.5t104 -390.5v-39q0 -23 -24 -23h-647q0 -174 88 -256q81 -75 256 -75q120 0 247 26l17 -127q-134 -39 -297 -39q-238 0 -359 121q-25 22 -43 49q-113 -170 -366 -170q-229 0 -343 137.5 t-114 393.5zM268 502q0 -198 64.5 -294.5t214.5 -96.5q146 0 210.5 91t67.5 279v19v2q0 198 -64.5 294.5t-213.5 96.5q-150 0 -214.5 -96.5t-64.5 -294.5zM1004 567h503q-5 152 -65.5 240t-181.5 88q-125 0 -189.5 -86t-66.5 -242z" />
<glyph unicode="&#x178;" horiz-adv-x="1177" d="M33 1401h200l357 -674l371 674h184l-475 -832v-569h-183v573zM287 1729v22q0 51 24 74.5t74 23.5h18q99 0 99 -98v-22q0 -99 -99 -99h-18q-98 0 -98 99zM674 1729v22q0 51 24 74.5t74 23.5h19q50 0 74 -23.5t24 -74.5v-22q0 -99 -98 -99h-19q-98 0 -98 99z" />
<glyph unicode="&#x2c6;" horiz-adv-x="839" d="M104 1229l244 301h146l241 -301l-61 -62l-254 219l-254 -219z" />
<glyph unicode="&#x2dc;" horiz-adv-x="839" d="M102 1268q8 101 52.5 157t119.5 56q57 0 153.5 -40t129.5 -40q32 0 52 18.5t30 63.5l96 -17q-8 -101 -52.5 -157t-119.5 -56q-57 0 -153 40t-129 40q-32 0 -52 -18.5t-30 -63.5z" />
<glyph unicode="&#x2000;" horiz-adv-x="1009" />
<glyph unicode="&#x2001;" horiz-adv-x="2019" />
<glyph unicode="&#x2002;" horiz-adv-x="1009" />
<glyph unicode="&#x2003;" horiz-adv-x="2019" />
<glyph unicode="&#x2004;" horiz-adv-x="673" />
<glyph unicode="&#x2005;" horiz-adv-x="504" />
<glyph unicode="&#x2006;" horiz-adv-x="336" />
<glyph unicode="&#x2007;" horiz-adv-x="336" />
<glyph unicode="&#x2008;" horiz-adv-x="252" />
<glyph unicode="&#x2009;" horiz-adv-x="403" />
<glyph unicode="&#x200a;" horiz-adv-x="112" />
<glyph unicode="&#x2010;" horiz-adv-x="659" d="M123 459v145h414v-145h-414z" />
<glyph unicode="&#x2011;" horiz-adv-x="659" d="M123 459v145h414v-145h-414z" />
<glyph unicode="&#x2012;" horiz-adv-x="659" d="M123 459v145h414v-145h-414z" />
<glyph unicode="&#x2013;" horiz-adv-x="1024" d="M0 459v145h1024v-145h-1024z" />
<glyph unicode="&#x2014;" horiz-adv-x="2048" d="M0 459v145h2048v-145h-2048z" />
<glyph unicode="&#x2018;" horiz-adv-x="448" d="M123 1079q0 61 14.5 166.5t32.5 181.5h80v-256q96 -20 96 -116v-6q0 -111 -104 -111h-2q-61 0 -89 33t-28 108z" />
<glyph unicode="&#x2019;" horiz-adv-x="448" d="M102 1311v6q0 110 105 110h2q61 0 89 -33t28 -108q0 -61 -14.5 -166.5t-32.5 -181.5h-80v256q-97 20 -97 117z" />
<glyph unicode="&#x201a;" horiz-adv-x="448" d="M102 59v7q0 110 105 110h2q61 0 89 -33t28 -108q0 -61 -14.5 -166.5t-32.5 -181.5h-80v256q-97 20 -97 116z" />
<glyph unicode="&#x201c;" horiz-adv-x="788" d="M123 1079q0 61 14.5 166.5t32.5 181.5h80v-256q96 -20 96 -116v-6q0 -111 -104 -111h-2q-61 0 -89 33t-28 108zM463 1079q0 61 14.5 166.5t32.5 181.5h80v-256q96 -20 96 -116v-6q0 -111 -104 -111h-2q-61 0 -89 33t-28 108z" />
<glyph unicode="&#x201d;" horiz-adv-x="788" d="M102 1311v6q0 110 105 110h2q61 0 89 -33t28 -108q0 -61 -14.5 -166.5t-32.5 -181.5h-80v256q-97 20 -97 117zM442 1311v6q0 110 105 110h2q61 0 89 -33t28 -108q0 -60 -15 -165.5t-33 -182.5h-79v256q-97 20 -97 117z" />
<glyph unicode="&#x201e;" horiz-adv-x="788" d="M102 59v7q0 110 105 110h2q61 0 89 -33t28 -108q0 -61 -14.5 -166.5t-32.5 -181.5h-80v256q-97 20 -97 116zM442 59v7q0 110 105 110h2q61 0 89 -33t28 -108q0 -60 -15 -165.5t-33 -182.5h-79v256q-97 20 -97 116z" />
<glyph unicode="&#x2022;" horiz-adv-x="745" d="M117 682v33q0 129 59 186t178 57h37q119 0 178.5 -57t59.5 -186v-33q0 -129 -59.5 -186.5t-178.5 -57.5h-37q-119 0 -178 57.5t-59 186.5z" />
<glyph unicode="&#x2026;" horiz-adv-x="1394" d="M123 82v8q0 111 102 111h15q102 0 102 -111v-8q0 -111 -102 -111h-15q-102 0 -102 111zM588 82v8q0 111 102 111h15q102 0 102 -111v-8q0 -111 -102 -111h-15q-102 0 -102 111zM1053 82v8q0 111 102 111h14q103 0 103 -111v-8q0 -111 -103 -111h-14q-102 0 -102 111z" />
<glyph unicode="&#x202f;" horiz-adv-x="403" />
<glyph unicode="&#x2039;" horiz-adv-x="690" d="M147 537q0 27 13 51.5t49 64.5l270 308l80 -66l-244 -358l244 -359l-80 -65l-270 307q-36 40 -49 65t-13 52z" />
<glyph unicode="&#x203a;" horiz-adv-x="690" d="M131 178l244 359l-244 358l80 66l270 -308q36 -40 49 -64.5t13 -51.5t-13 -52t-49 -65l-270 -307z" />
<glyph unicode="&#x205f;" horiz-adv-x="504" />
<glyph unicode="&#x20ac;" d="M82 494v94l147 18q-2 25 -2 125h-145v94l154 19q28 286 165 434.5t385 148.5q154 0 279 -38v-136q-139 29 -256 29q-190 0 -282 -107t-113 -327h411v-117h-419q0 -96 2 -121h417v-116h-403q25 -197 122 -289t281 -92q127 0 265 32v-135q-164 -39 -291 -39 q-255 0 -388 129t-169 394h-160z" />
<glyph unicode="&#x2122;" horiz-adv-x="1390" d="M25 1296v105h534v-105h-203v-557h-129v557h-202zM659 739v662h123l197 -414l205 414h116v-662h-122v416l-158 -317h-88l-156 321v-420h-117z" />
<glyph unicode="&#x25fc;" horiz-adv-x="1003" d="M0 0v1004h1004v-1004h-1004z" />
</font>
</defs>
</svg>
